{
  "source": "C:\\Users\\Peter\\Desktop\\stuff\\MIUN\\quantitative_research\\video_compression\\videos\\BVI-HD\\BVI-HD_CDVL_videos\\ORIG\\CarpetCircleFast_1920x1080_60fps.mp4",
  "output": "C:\\Users\\Peter\\Desktop\\stuff\\MIUN\\quantitative_research\\video_compression\\compressed_videos\\BVI-HD\\h264\\1\\CarpetCircleFast_1920x1080_60fps_h264.mp4",
  "codec": "h264",
  "ok": "Input #0, mov,mp4,m4a,3gp,3g2,mj2, from 'C:\\Users\\Peter\\Desktop\\stuff\\MIUN\\quantitative_research\\video_compression\\videos\\BVI-HD\\BVI-HD_CDVL_videos\\ORIG\\CarpetCircleFast_1920x1080_60fps.mp4':\n  Metadata:\n    major_brand     : isom\n    minor_version   : 512\n    compatible_brands: isomiso2avc1mp41\n    encoder         : Lavf54.28.101\n  Duration: 00:00:05.00, start: 0.000000, bitrate: 324759 kb/s\n  Stream #0:0[0x1](und): Video: h264 (High 4:4:4 Predictive) (avc1 / 0x31637661), yuv420p(progressive), 1920x1080, 324754 kb/s, 60 fps, 60 tbr, 60 tbn (default)\n    Metadata:\n      handler_name    : VideoHandler\n      vendor_id       : [0][0][0][0]\n[out#0/mp4 @ 000001beb8dd9b40] Codec AVOption b:a (set bitrate (in bits/s)) has not been used for any stream. The most likely reason is either wrong type (e.g. a video option with no video streams) or that it is a private option of some decoder which was not actually used for any stream.\nStream mapping:\n  Stream #0:0 -> #0:0 (h264 (native) -> h264 (libx264))\nPress [q] to stop, [?] for help\n[libx264 @ 000001beb979d300] using cpu capabilities: MMX2 SSE2Fast SSSE3 SSE4.2 AVX FMA3 BMI2 AVX2\n[libx264 @ 000001beb979d300] profile High, level 5.0, 4:2:0, 8-bit\n[libx264 @ 000001beb979d300] 264 - core 165 r3222 b35605a - H.264/MPEG-4 AVC codec - Copyleft 2003-2025 - http://www.videolan.org/x264.html - options: cabac=1 ref=5 deblock=1:0:0 analyse=0x3:0x113 me=hex subme=8 psy=1 psy_rd=1.00:0.00 mixed_ref=1 me_range=16 chroma_me=1 trellis=2 8x8dct=1 cqm=0 deadzone=21,11 fast_pskip=1 chroma_qp_offset=-2 threads=18 lookahead_threads=3 sliced_threads=0 nr=0 decimate=1 interlaced=0 bluray_compat=0 constrained_intra=0 bframes=3 b_pyramid=2 b_adapt=1 b_bias=0 direct=3 weightb=1 open_gop=0 weightp=2 keyint=250 keyint_min=25 scenecut=40 intra_refresh=0 rc_lookahead=50 rc=cbr mbtree=1 bitrate=1000 ratetol=1.0 qcomp=0.60 qpmin=0 qpmax=69 qpstep=4 vbv_maxrate=1000 vbv_bufsize=1000 nal_hrd=none filler=0 ip_ratio=1.40 aq=1:1.00\nOutput #0, mp4, to 'C:\\Users\\Peter\\Desktop\\stuff\\MIUN\\quantitative_research\\video_compression\\compressed_videos\\BVI-HD\\h264\\1\\CarpetCircleFast_1920x1080_60fps_h264.mp4':\n  Metadata:\n    major_brand     : isom\n    minor_version   : 512\n    compatible_brands: isomiso2avc1mp41\n    encoder         : Lavf62.3.100\n  Stream #0:0(und): Video: h264 (avc1 / 0x31637661), yuv420p(tv, progressive), 1920x1080, q=2-31, 1000 kb/s, 60 fps, 15360 tbn (default)\n    Metadata:\n      encoder         : Lavc62.11.100 libx264\n      handler_name    : VideoHandler\n      vendor_id       : [0][0][0][0]\n    Side data:\n      cpb: bitrate max/min/avg: 1000000/0/1000000 buffer size: 1000000 vbv_delay: N/A\nframe=    0 fps=0.0 q=0.0 size=       0KiB time=N/A bitrate=N/A speed=N/A elapsed=0:00:00.53    \nframe=    0 fps=0.0 q=0.0 size=       0KiB time=N/A bitrate=N/A speed=N/A elapsed=0:00:01.20    \nframe=    0 fps=0.0 q=0.0 size=       0KiB time=N/A bitrate=N/A speed=N/A elapsed=0:00:01.71    \nframe=   26 fps= 12 q=52.0 size=       0KiB time=00:00:00.33 bitrate=   1.2kbits/s speed=0.15x elapsed=0:00:02.22    \nframe=   52 fps= 18 q=52.0 size=       0KiB time=00:00:00.78 bitrate=   0.5kbits/s speed=0.277x elapsed=0:00:02.82    \nframe=   74 fps= 22 q=52.0 size=       0KiB time=00:00:01.20 bitrate=   0.3kbits/s speed=0.35x elapsed=0:00:03.43    \nframe=  102 fps= 26 q=48.0 size=       0KiB time=00:00:01.66 bitrate=   0.2kbits/s speed=0.417x elapsed=0:00:03.99    \nframe=  126 fps= 27 q=50.0 size=       0KiB time=00:00:02.06 bitrate=   0.2kbits/s speed=0.449x elapsed=0:00:04.60    \nframe=  152 fps= 30 q=50.0 size=     256KiB time=00:00:02.50 bitrate= 839.0kbits/s speed=0.486x elapsed=0:00:05.14    \nframe=  184 fps= 32 q=51.0 size=     256KiB time=00:00:02.98 bitrate= 703.1kbits/s speed=0.526x elapsed=0:00:05.67    \nframe=  212 fps= 34 q=49.0 size=     256KiB time=00:00:03.50 bitrate= 599.3kbits/s speed=0.56x elapsed=0:00:06.25    \nframe=  223 fps= 33 q=48.0 size=     256KiB time=00:00:03.68 bitrate= 569.5kbits/s speed=0.542x elapsed=0:00:06.79    \nframe=  264 fps= 36 q=48.0 size=     256KiB time=00:00:04.35 bitrate= 482.2kbits/s speed=0.593x elapsed=0:00:07.32    \n[mp4 @ 000001beb93b00c0] Starting second pass: moving the moov atom to the beginning of the file\n[out#0/mp4 @ 000001beb8dd9b40] video:583KiB audio:0KiB subtitle:0KiB other streams:0KiB global headers:0KiB muxing overhead: 0.711630%\nframe=  300 fps= 40 q=-1.0 Lsize=     587KiB time=00:00:04.96 bitrate= 968.1kbits/s speed=0.657x elapsed=0:00:07.55    \n[libx264 @ 000001beb979d300] frame I:2     Avg QP:42.97  size:  4539\n[libx264 @ 000001beb979d300] frame P:91    Avg QP:46.45  size:  2356\n[libx264 @ 000001beb979d300] frame B:207   Avg QP:48.40  size:  1800\n[libx264 @ 000001beb979d300] consecutive B-frames:  5.0%  4.0% 15.0% 76.0%\n[libx264 @ 000001beb979d300] mb I  I16..4: 39.9% 60.1%  0.0%\n[libx264 @ 000001beb979d300] mb P  I16..4:  8.3% 22.3%  0.0%  P16..4:  5.0%  0.0%  0.0%  0.0%  0.0%    skip:64.3%\n[libx264 @ 000001beb979d300] mb B  I16..4:  0.2%  0.1%  0.0%  B16..8: 22.0%  0.1%  0.0%  direct: 3.4%  skip:74.2%  L0:45.6% L1:54.1% BI: 0.3%\n[libx264 @ 000001beb979d300] 8x8 transform intra:71.6% inter:100.0%\n[libx264 @ 000001beb979d300] direct mvs  spatial:95.2% temporal:4.8%\n[libx264 @ 000001beb979d300] coded y,uvDC,uvAC intra: 0.1% 20.6% 0.0% inter: 0.0% 5.0% 0.0%\n[libx264 @ 000001beb979d300] i16 v,h,dc,p: 85%  9%  1%  6%\n[libx264 @ 000001beb979d300] i8 v,h,dc,ddl,ddr,vr,hd,vl,hu:  2%  0% 98%  0%  0%  0%  0%  0%  0%\n[libx264 @ 000001beb979d300] i8c dc,h,v,p: 96%  0%  3%  0%\n[libx264 @ 000001beb979d300] Weighted P-Frames: Y:4.4% UV:4.4%\n[libx264 @ 000001beb979d300] ref P L0: 39.6%  1.8% 35.8% 11.6% 10.3%  1.0%\n[libx264 @ 000001beb979d300] ref B L0: 75.0% 15.1%  7.8%  2.1%\n[libx264 @ 000001beb979d300] ref B L1: 92.1%  7.9%\n[libx264 @ 000001beb979d300] kb/s:953.66\n",
  "seconds": 7.819874286651611,
  "probe_out": {}
}